<?xml version="1.0" standalone="no"?><!DOCTYPE svg PUBLIC "-//W3C//DTD SVG 1.1//EN" "http://www.w3.org/Graphics/SVG/1.1/DTD/svg11.dtd"><svg t="1721648113977" class="icon" viewBox="0 0 1135 1024" version="1.1" xmlns="http://www.w3.org/2000/svg" p-id="4287" xmlns:xlink="http://www.w3.org/1999/xlink" width="53.203125" height="48"><path d="M976.027826 38.4c0-8.993391-3.628522-13.356522-10.061913-19.634087C959.554783 12.488348 950.850783 11.130435 941.857391 11.308522H55.340522c-18.454261 0-33.391304 8.637217-33.391305 27.091478-0.222609 8.993391 3.227826 13.356522 9.505392 19.789913 6.299826 6.41113 14.914783 10.039652 23.885913 10.039652h166.711652V199.902609H129.78087c-34.637913 0-57.277217-3.138783-81.563827 21.570782a129.068522 129.068522 0 0 0-36.908521 92.783305v488.537043c0 71.346087 47.126261 116.46887 118.472348 116.46887h737.658434a129.224348 129.224348 0 0 0 91.826087-37.554087c24.375652-24.264348 27.38087-44.521739 27.38087-78.914783V314.256696c0-71.346087-47.126261-114.354087-118.472348-114.354087h-98.949565V70.455652h172.633043c9.527652 0.24487 18.721391-3.561739 25.243826-10.529391 6.522435-6.945391 9.772522-12.02087 8.904348-21.526261z" fill="#444444" p-id="4288" data-spm-anchor-id="a313x.search_index.0.i2.25da3a81jGwkYw" class="selected"></path><path d="M929.792 314.256696v488.537043a62.374957 62.374957 0 0 1-62.352696 62.352696H129.78087a62.374957 62.374957 0 0 1-62.352696-62.352696V314.256696a62.352696 62.352696 0 0 1 62.352696-62.352696h737.658434a62.352696 62.352696 0 0 1 62.352696 62.352696z" fill="#FFFFFF" p-id="4289"></path><path d="M127.777391 338.031304H870.177391v445.44H127.777391z" fill="#1F998E" p-id="4290" data-spm-anchor-id="a313x.search_index.0.i0.25da3a81jGwkYw" class=""></path><path d="M289.613913 199.902609V67.561739h413.540174V199.902609z" fill="#FFFFFF" p-id="4291"></path><path d="M869.687652 492.410435c-140.666435 0-255.109565 114.42087-255.109565 255.109565 0 140.688696 114.42087 255.154087 255.109565 255.154087 140.688696 0 255.131826-114.465391 255.131826-255.131826 0-140.688696-114.44313-255.131826-255.109565-255.131826z" fill="#444444" p-id="4292"></path><path d="M869.687652 954.457043c-117.626435 0-206.870261-89.266087-206.870261-206.914782s89.221565-206.959304 206.870261-206.959304c117.648696 0 207.026087 89.310609 207.026087 206.959304 0 117.648696-89.377391 206.914783-207.026087 206.914782zM266.462609 491.341913h-26.201044c0 29.206261-7.168 33.970087-16.695652 33.970087s-17.274435-7.145739-17.274435-47.682783c0-40.514783 2.982957-51.845565 16.695652-51.845565 13.690435 0 16.072348 8.347826 16.072348 28.026435h26.824348c0-19.678609 0-47.682783-41.716869-47.682783S180.669217 434.754783 180.669217 475.269565s0 69.721043 42.896696 69.721044c35.750957 0 42.896696-25.021217 42.896696-53.626435z m42.317913 28.605217v-111.437913H281.377391v134.077218h75.085913v-22.639305H308.758261z m120.386782-5.965913l5.943653 28.605218h28.004173l-35.149913-134.077218h-33.369043l-35.172174 134.077218h28.026435l5.943652-28.605218h35.773217z m-17.897739-82.231652l13.133913 59.592348h-26.223304l13.089391-59.592348z m145.408 72.125218a34.54887 34.54887 0 0 0-25.6-35.773218l-20.880695-8.926608c-11.308522-4.786087-13.690435-10.150957-13.690435-18.476522A13.712696 13.712696 0 0 1 512 425.182609c10.128696 0 14.892522 7.123478 14.892522 19.656348h26.223304v-0.601044c0-25.6-17.296696-36.352-41.716869-36.352a36.953043 36.953043 0 0 0-41.71687 39.334957c0 22.639304 11.330783 32.189217 35.172174 40.514782 23.81913 8.347826 23.81913 10.729739 23.81913 22.661565a15.493565 15.493565 0 0 1-16.094608 16.695653c-14.291478 0-17.875478-8.347826-17.875479-20.880696v-5.943652H467.923478v3.561739c0 25.043478 11.909565 39.334957 42.896696 39.334956l-0.601044 1.78087c29.206261 0 46.480696-12.510609 46.480696-41.115826z m97.725218 0a34.54887 34.54887 0 0 0-25.6-35.773218l-20.880696-8.926608c-11.308522-4.786087-13.690435-10.150957-13.690435-18.476522a13.712696 13.712696 0 0 1 15.493565-15.493565c10.128696 0 14.914783 7.123478 14.914783 19.656347h26.201043v-0.601043c0-25.6-17.274435-36.352-41.716869-36.352a36.953043 36.953043 0 0 0-41.71687 39.334956c0 22.639304 11.330783 32.189217 35.172174 40.514783 23.81913 8.347826 23.81913 10.729739 23.819131 22.661565a15.493565 15.493565 0 0 1-16.072348 16.695652c-14.313739 0-17.875478-8.347826-17.875478-20.880695v-5.943652h-27.425392v3.561739c0 25.043478 11.909565 39.334957 42.896696 39.334956v1.78087c29.206261 0 46.480696-12.510609 46.480696-41.115826z" fill="#FFFFFF" p-id="4293"></path><path d="M979.589565 789.926957c13.801739-9.082435 22.171826-24.932174 22.171826-41.96174 0-17.007304-8.370087-32.857043-22.171826-41.939478l-127.643826-83.923478C820.313043 601.310609 779.130435 625.085217 779.130435 664.064v167.846957c0 38.956522 41.182609 62.70887 72.793043 41.917217l127.621565-83.923478h0.044522v0.022261zM954.256696 747.965217l-127.643826 83.923479v-167.846957l127.643826 83.923478z" fill="#1F998E" p-id="4294" data-spm-anchor-id="a313x.search_index.0.i1.25da3a81jGwkYw" class=""></path></svg>