<svg class="icon" style="width: 1em;height: 1em;vertical-align: middle;fill: currentColor;overflow: hidden;" viewBox="0 0 1024 1024" version="1.1" xmlns="http://www.w3.org/2000/svg" p-id="8852"><path d="M597.333333 785.066667H170.666667c-66.030933 0-102.4-36.369067-102.4-102.4V170.666667c0-66.030933 36.369067-102.4 102.4-102.4h512c66.030933 0 102.4 36.369067 102.4 102.4v337.92a17.066667 17.066667 0 1 1-34.133334 0V170.666667c0-47.223467-21.0432-68.266667-68.266666-68.266667H170.666667c-47.223467 0-68.266667 21.0432-68.266667 68.266667v512c0 47.223467 21.0432 68.266667 68.266667 68.266666h426.666666a17.066667 17.066667 0 1 1 0 34.133334zM768 972.8a34.133333 34.133333 0 0 1-24.132267-58.2656L890.402133 768l-146.5344-146.5344a34.133333 34.133333 0 1 1 48.264534-48.264533l170.666666 170.666666a34.133333 34.133333 0 0 1 0 48.264534l-170.666666 170.666666A33.9968 33.9968 0 0 1 768 972.8z m-170.666667 0a34.133333 34.133333 0 0 1-24.132266-58.2656L719.735467 768l-146.5344-146.5344a34.133333 34.133333 0 1 1 48.264533-48.264533l170.666667 170.666666a34.133333 34.133333 0 0 1 0 48.264534l-170.666667 170.666666A33.9968 33.9968 0 0 1 597.333333 972.8z" p-id="8853"></path></svg>