<?xml version="1.0" standalone="no"?><!DOCTYPE svg PUBLIC "-//W3C//DTD SVG 1.1//EN" "http://www.w3.org/Graphics/SVG/1.1/DTD/svg11.dtd"><svg t="1731478371339" class="icon" viewBox="0 0 1024 1024" version="1.1" xmlns="http://www.w3.org/2000/svg" p-id="4539" xmlns:xlink="http://www.w3.org/1999/xlink" width="48" height="48"><path d="M986.970795 194.787556c12.720356 15.9744 23.074133 45.6704 23.074133 65.991111v526.313244a75.593956 75.593956 0 0 1-75.639467 75.662222h-456.476444c64.785067-48.833422 106.9056-126.1568 106.9056-213.356089 0-147.364978-119.853511-267.218489-267.218489-267.218488-97.348267 0-182.363022 52.474311-229.125689 130.389333V260.778667c0-20.320711 10.353778-50.016711 23.074133-65.991111l121.514667-152.507734a60.6208 60.6208 0 0 1 47.354311-22.755555h537.577245c18.432 0 35.908267 8.374044 47.331555 22.755555l121.628445 152.507734z m-835.652267-1.297067h795.807289l-40.254578-50.494578h-215.722667l-15.086933-44.600889h195.401956l-29.696-37.2736a30.037333 30.037333 0 0 0-23.665778-11.423289H280.547328c-9.284267 0-17.863111 4.232533-23.665778 11.423289l-29.809778 37.296356h190.6688l-27.124622 44.578133h-199.042844l-40.254578 50.517333z m166.2976 234.154667c122.515911 0 221.843911 99.441778 221.843911 221.934933 0 122.515911-99.328 221.843911-221.843911 221.843911-31.175111 0-60.757333-6.508089-87.677156-18.045156l-136.8064 149.435734a53.703111 53.703111 0 0 1-75.753244 3.254044 53.634844 53.634844 0 0 1-3.254044-75.776l130.298311-142.313244a220.956444 220.956444 0 0 1-48.628623-138.490311c0-122.493156 99.328-221.821156 221.821156-221.821156z m0 368.0256a146.158933 146.158933 0 0 0 0-292.2496 146.158933 146.158933 0 0 0 0 292.2496z" fill="#536DFE" p-id="4540"></path></svg>