<?xml version="1.0" standalone="no"?><!DOCTYPE svg PUBLIC "-//W3C//DTD SVG 1.1//EN" "http://www.w3.org/Graphics/SVG/1.1/DTD/svg11.dtd"><svg t="1723778534655" class="icon" viewBox="0 0 1024 1024" version="1.1" xmlns="http://www.w3.org/2000/svg" p-id="9173" xmlns:xlink="http://www.w3.org/1999/xlink" width="48" height="48"><path d="M967.111111 256v540.444444l-369.777778 142.222223V426.666667l175.246223-80.896z" fill="#BAE7FF" p-id="9174" data-spm-anchor-id="a313x.search_index.0.i1.4d323a81Er9Oam" class="selected"></path><path d="M521.045333 26.936889l3.498667 1.28 455.111111 199.111111a31.288889 31.288889 0 0 1 18.517333 24.974222L998.4 256v540.444444a31.288889 31.288889 0 0 1-17.066667 27.875556l-3.242666 1.422222-455.111111 170.666667a31.288889 31.288889 0 0 1-19.712 0.739555l-3.811556-1.365333-455.111111-199.111111a31.288889 31.288889 0 0 1-18.517333-24.974222L25.6 768V256c0-11.178667 5.973333-21.418667 15.445333-26.993778l3.299556-1.678222 455.111111-199.111111a31.288889 31.288889 0 0 1 21.617778-1.28zM935.822222 303.815111l-392.533333 171.747556v446.378666L935.822222 774.769778l-0.028444-470.954667z m-847.644444 0l0.028444 443.733333 392.504889 171.719112V475.562667l-392.533333-171.747556z m212.565333-120.348444L134.912 256 512 420.977778l165.745778-72.561778L300.714667 183.466667zM512 91.022222l-133.262222 58.311111 373.361778 163.328 3.896888 1.536L889.031111 256 512 91.022222z" fill="#178FFF" p-id="9175"></path></svg>