<?xml version="1.0" standalone="no"?><!DOCTYPE svg PUBLIC "-//W3C//DTD SVG 1.1//EN" "http://www.w3.org/Graphics/SVG/1.1/DTD/svg11.dtd"><svg t="1724749721706" class="icon" viewBox="0 0 1024 1024" version="1.1" xmlns="http://www.w3.org/2000/svg" p-id="27116" xmlns:xlink="http://www.w3.org/1999/xlink" width="48" height="48"><path d="M939.4176 619.3152h-135.7824V331.2128a155.5968 155.5968 0 0 1 9.5744 14.6944 4.1984 4.1984 0 0 0 0.7168 1.1776l125.4912 272.1792z m-717.5168 0H85.9136l135.9872-273.8688v273.8176z" fill="#2256CF" opacity=".7" p-id="27117"></path><path d="M599.8592 752.6912h-174.08H599.7568z m33.9456-69.9392H397.824a46.08 46.08 0 0 1-46.08-44.4416v-18.9952H221.7984V175.7696a53.4528 53.4528 0 0 1 53.3504-53.3504h475.136a53.4016 53.4016 0 0 1 53.3504 53.3504v443.5456h-123.904v18.9952a46.08 46.08 0 0 1-45.9264 44.4416z m-233.728-119.1936a19.3536 19.3536 0 0 0-19.3536 18.432 19.5072 19.5072 0 0 0 18.3808 20.48h234.8544a19.5072 19.5072 0 0 0 18.3808-20.48 19.3536 19.3536 0 0 0-18.3808-18.3808H400.0768z m91.1872-221.2352v146.9952a21.5552 21.5552 0 0 0 21.504 21.504 21.5552 21.5552 0 0 0 21.504-21.504V342.1184l24.1152 23.3984a21.9648 21.9648 0 0 0 15.36 6.2464 21.9136 21.9136 0 0 0 15.36-6.2464 20.48 20.48 0 0 0 0.6656-28.9792l-0.6656-0.6656-61.1328-59.0848a21.6064 21.6064 0 0 0-15.36-6.144 21.9136 21.9136 0 0 0-15.36 6.144L436.5824 335.872a20.48 20.48 0 0 0-0.6144 28.928l0.6144 0.6656a22.016 22.016 0 0 0 15.36 6.0928 21.8624 21.8624 0 0 0 15.36-6.0928l23.8592-23.1424z" fill="#3E6EDF" opacity=".5" p-id="27118"></path><path d="M885.9136 886.0672H139.264a53.4528 53.4528 0 0 1-53.3504-53.3504v-213.3504h265.9328v18.944a46.08 46.08 0 0 0 47.36 44.4416h233.0624a46.08 46.08 0 0 0 47.5648-44.4416v-18.944h259.584v213.3504a53.4016 53.4016 0 0 1-53.4528 53.3504zM429.568 752.4864a22.272 22.272 0 1 0 0 44.4416h165.9904a22.272 22.272 0 1 0 3.0208-44.4416H429.568z" fill="#3E6EDF" p-id="27119"></path></svg>