<?xml version="1.0" standalone="no"?><!DOCTYPE svg PUBLIC "-//W3C//DTD SVG 1.1//EN" "http://www.w3.org/Graphics/SVG/1.1/DTD/svg11.dtd"><svg t="1735027022266" class="icon" viewBox="0 0 1024 1024" version="1.1" xmlns="http://www.w3.org/2000/svg" p-id="10066" xmlns:xlink="http://www.w3.org/1999/xlink" width="48" height="48"><path d="M508.3 885.9H170c-24.7 0-44.7-20-44.7-44.7V350.1h771.8v289.7c0 16.9 13.7 30.6 30.6 30.6s30.6-13.7 30.6-30.6V319.5c0-4.9-1.2-9.4-3.1-13.5l-87.1-178.2c-15.7-32-48.7-52.8-84.4-52.8h-545c-35.7 0-68.9 20.8-84.4 52.8l-87 178.3c-2 4.1-3.1 8.6-3.1 13.5v521.8c0 58.3 47.5 105.8 105.8 105.8h338.3c16.9 0 30.6-13.7 30.6-30.6s-13.7-30.7-30.6-30.7zM209.2 154.8c5.5-11.2 17.1-18.4 29.6-18.4h544.6c12.4 0 24.1 7.1 29.6 18.4L878.7 289h-735c0-0.1 65.5-134.2 65.5-134.2z m405.4 623c0-16.9 13.7-30.6 30.6-30.6H856l-42.8-42.8c-12-12-12-31.4 0-43.2 5.9-5.9 13.9-9 21.6-9 7.7 0 15.7 3.1 21.6 9l95 95c5.9 5.9 9 13.9 9 21.6 0 0.8 0 1.6-0.2 2.4v0.4c-0.8 8.2-4.7 15.3-10.4 20.2l-93.4 93.4c-12 12-31.4 12-43.2 0-12-12-12-31.4 0-43.2l42.6-42.6H645.4c-17 0-30.8-13.7-30.8-30.6z" p-id="10067" fill="#fea03c"></path><path d="M230.4 673.5h235.2c18.5 0 33.3-15.3 33.3-34.2v-166c0-19-14.9-34.2-33.3-34.2H230.4c-18.5 0-33.3 15.3-33.3 34.2v166c-0.1 19 14.8 34.2 33.3 34.2z m9.8-194.7h215.7v150.9H240.2V478.8zM675.2 782.4v136.4c0 22.7-10.1 34.1-30.3 34.1-20.2 0-30.3-11.4-30.3-34.1V782.4c0-22.7 10.1-34.1 30.3-34.1 20.2 0 30.3 11.4 30.3 34.1z" p-id="10068" fill="#fea03c"></path></svg>