<?xml version="1.0" standalone="no"?><!DOCTYPE svg PUBLIC "-//W3C//DTD SVG 1.1//EN" "http://www.w3.org/Graphics/SVG/1.1/DTD/svg11.dtd"><svg t="1733802157996" class="icon" viewBox="0 0 1024 1024" version="1.1" xmlns="http://www.w3.org/2000/svg" p-id="25461" xmlns:xlink="http://www.w3.org/1999/xlink" width="48" height="48"><path d="M64 64m80 0l736 0q80 0 80 80l0 736q0 80-80 80l-736 0q-80 0-80-80l0-736q0-80 80-80Z" fill="#006487" p-id="25462" data-spm-anchor-id="a313x.search_index.0.i1.185f3a81bo6WNI" class="selected"></path><path d="M267 733q-10.95-7.1-20.78-12.58a185.36 185.36 0 0 0 10.94-17.5q12 7.66 24.61 14.77t22.42 12.58q-7.66 9.84-14.22 19.69A268.38 268.38 0 0 0 267 733z m24.61 96.8q-14.77 29.53-23.52 45.94-10.95-10.95-19.69-15.31 27.33-33.93 49.23-86.43 7.64 6.56 16.41 13.13-7.67 13.1-22.43 42.63z m24.61-159.69a107.55 107.55 0 0 0-15.31 16.41q-8.77-8.74-20.78-18.59a213.31 213.31 0 0 0-20.78-15.31 130.61 130.61 0 0 0 14.22-14.22q30.6 21.85 42.65 31.68z m98.44 31.72v18.59h35q23 0 44.84-1.09v18.59q-24.07-1.08-47-1.09H372q-33.91 0-56.87 1.09v-18.63q21.87 1.1 52.5 1.09h25.16v-18.59h-21.88q-18.61 0-38.28 1.09v-18.59q19.69 1.1 38.28 1.09h21.88v-17.5h-19.7q-27.35 0-48.12 1.09v-18.58q20.76 1.1 47 1.09h20.78q0-13.12-1.09-25.16h24.06q-1.1 14.23-1.09 25.16h30.63q14.2 0 38.28-1.09V669q-24.07-1.08-37.19-1.09h-31.69v17.5h21.88q8.74 0 43.75-1.09v18.59q-33.91-1.08-42.66-1.09z m36.09 149.84v-15.34H360V879h-21.91q1.08-19.69 1.09-39.37v-49.24q0-15.3-1.09-38.28h135.63q-1.1 20.79-1.09 37.19V856q0 10.92-5.47 14.77t-26.25 9.3q-1.1-9.84-12-21.87 21.83 0 21.84-6.56z m0-64.53v-18.63H360v18.59z m0 32.81v-16.44H360v16.41zM590.75 723.67q16.41 23 20.78 35a76.64 76.64 0 0 1 4.38 26.25 32.72 32.72 0 0 1-9.85 24.08q-9.84 9.84-30.62 14.22a111.94 111.94 0 0 0-9.84-24.06q21.87-2.18 27.34-9.3t0.55-23.52q-4.92-16.41-24.61-42.66A332.23 332.23 0 0 0 594 658h-37.16v222h-20.78q1.08-26.25 1.09-67.81V686.48q0-25.15-1.09-45.94h85.31q-6.56 16.46-30.62 83.13z m56.88 108.83q-10.95 14.77-24.06 30.08a137 137 0 0 0-17.5-13.12 189.23 189.23 0 0 0 21.88-23.52 198.88 198.88 0 0 0 18.59-29 92 92 0 0 0 19.69 13.13q-7.67 7.67-18.6 22.43zM701.22 728v32.81h25.16q15.3 0 36.09-1.09v19.69q-19.69-1.08-35-1.09h-26.25v71.09q0 19.69-8.75 24.06t-29.53 8.75q-1.1-12-8.75-26.25 17.48 0 23-1.09c3.64-0.73 5.47-5.09 5.47-13.12v-63.4h-20.82q-19.69 0-38.28 1.09v-19.69q17.48 1.1 39.38 1.09h19.69V728h-12q-10.95 0-23 1.09v-16.36q-13.12 16.41-20.78 23a96.88 96.88 0 0 0-18.59-14.22q28.43-21.87 46.48-49.22t26.8-51.41a189.38 189.38 0 0 0 24.06 10.94q-2.2 3.28-6.56 8.75 15.3 25.17 32.81 40.47t51.41 29.53q-9.84 7.66-16.41 21.88-13.12-6.56-30.62-20.78v17.5Q722 728.06 710 728z m31.72-18.59q-29.53-26.25-44.84-53.59-18.61 31.74-38.28 53.59z m20.23 113.2a263.23 263.23 0 0 0 24.61 25.7A50.53 50.53 0 0 0 757 862.58a342.55 342.55 0 0 0-20.23-27.89q-12.59-15.84-21.33-23.52l17.5-13.17q9.84 12.09 20.23 24.65z" fill="#FFFFFF" p-id="25463"></path><path d="M584.14 455.64c-2.21 8.78-13.43 28-31.28 53.85 4.89 1.14 9.56 2.42 14.31 3.28 8.65 1.57 17.36 2.8 26 4.38 2.83 0.52 4.28-0.51 5.79-2.76 17.4-25.87 31.43-53.52 43.2-82.32 4.61-11.27 8.54-22.82 12.78-34.24l1.37-3.72 28 9.65c-1.71 5-3.26 9.74-4.94 14.42-14.37 39.77-32.16 77.82-55.9 112.9-2 2.92-4.2 5.66-6.15 8.59-4.47 6.73-10.72 8.81-18.56 8.06a339.57 339.57 0 0 1-87.87-20.43c-51.62-19.43-96.06-49.17-131.28-92-4.22-5.14-5.43-10.82-2.68-16.86 2.66-5.82 7.77-8.46 14-8.54a226.83 226.83 0 0 0 77.68-15.18c22.62-8.55 43.23-20.4 59.1-39.14 4.6-5.43 8.35-11.58 12.69-17.68l25.86 14.57c-4.8 6.94-9.07 13.88-14.08 20.23-12.27 15.52-27.75 27.31-44.94 36.86-25.89 14.4-53.85 22.69-83 27.41-0.57 0.09-1.14 0.21-2.54 0.48 4.16 3.82 7.67 7.38 11.53 10.5 7.23 5.85 14.58 11.57 22.09 17.06a8 8 0 0 0 5.82 1.12c14.93-3.37 28.64-9.34 40.13-20-1 5.22-10.44 18.5-23.69 33.29 8.32 4.15 16.74 7.78 24.57 12.38 10.15 6 19.85 4.34 29.81 0 16.83-7.27 31.25-18.15 45.06-30 2.24-1.91 4.43-3.89 7.06-6.21z m0 0M693.21 378.89L551.82 316a43.61 43.61 0 0 1 18.32-20.86c13.83-8.16 28.31-9.07 43-2.67 18.88 8.22 37.74 16.51 56.43 25.16 22 10.17 32.29 33 25.61 55.75-0.52 1.77-1.23 3.48-2 5.52z m0 0M672.23 296.54c-14.88-6.62-29.56-13.16-44.24-19.72-0.31-0.14-0.53-0.48-1-0.87 0.55-1.11 1.06-2.23 1.64-3.31l55.18-103.46c3.08-5.77 6.67-7.52 13.29-6.55a23.42 23.42 0 0 1 15.21 8.26 10 10 0 0 1 1.81 10.54q-20.59 56.66-41 113.37a18.13 18.13 0 0 1-0.88 1.72z m0 0" fill="#FFFFFF" p-id="25464"></path><path d="M447.84 332.95c-0.5 20.53-17.72 37.24-37.77 36.64-20.49-0.61-36.95-17.7-36.53-37.93s17.72-36.84 37.63-36.47c20.37 0.39 37.15 17.67 36.67 37.76z m0 0M351.33 221a22.26 22.26 0 0 1 0 44.51A22.52 22.52 0 0 1 329 243.18 22.28 22.28 0 0 1 351.33 221z m0 0M403.38 250.62a14.69 14.69 0 0 1 14.88-14.79 14.91 14.91 0 0 1 14.78 15 15.11 15.11 0 0 1-14.77 14.68 14.9 14.9 0 0 1-14.88-14.87z m0 0" fill="#FFFFFF" p-id="25465"></path></svg>