<?xml version="1.0" standalone="no"?><!DOCTYPE svg PUBLIC "-//W3C//DTD SVG 1.1//EN" "http://www.w3.org/Graphics/SVG/1.1/DTD/svg11.dtd"><svg t="1735026479379" class="icon" viewBox="0 0 1024 1024" version="1.1" xmlns="http://www.w3.org/2000/svg" p-id="6954" xmlns:xlink="http://www.w3.org/1999/xlink" width="48" height="48"><path d="M350.068364 607.744c-77.661091 0-140.613818 61.905455-140.613819 138.309818C209.454545 822.458182 272.407273 884.363636 350.068364 884.363636c77.684364 0 140.637091-61.905455 140.637091-138.309818 0-76.404364-62.952727-138.309818-140.637091-138.309818z m71.540363 152.994909l-77.149091 75.915636a21.317818 21.317818 0 0 1-29.905454 0 20.48 20.48 0 0 1 0-29.393454l62.231273-61.207273-62.231273-61.207273a20.48 20.48 0 0 1 0-29.393454 21.317818 21.317818 0 0 1 29.905454 0l77.149091 75.892364a20.48 20.48 0 0 1 0 29.393454zM679.028364 207.662545H644.421818c-19.013818 0-34.583273-15.36-34.583273-34.001454 0-18.734545-15.592727-34.024727-34.629818-34.024727h-69.12c-19.013818 0-34.56 15.290182-34.56 34.024727 0 18.711273-15.569455 34.001455-34.606545 34.001454h-34.606546c-19.037091 0-34.583273 15.290182-34.583272 34.024728v34.001454c0 18.734545 15.546182 34.024727 34.583272 34.024728h276.736c19.037091 0 34.583273-15.290182 34.583273-34.024728v-34.001454c0-18.711273-15.546182-34.024727-34.583273-34.024728z m-138.402909 34.024728c-19.083636 0-34.583273-15.220364-34.583273-34.024728 0-18.804364 15.499636-34.001455 34.583273-34.001454 19.106909 0 34.56 15.197091 34.56 34.001454 0 18.757818-15.453091 34.024727-34.56 34.024728zM837.818182 275.688727V820.130909c0 18.850909-15.546182 34.234182-34.769455 34.234182H471.505455a159.162182 159.162182 0 0 0 42.658909-108.288c0-89.111273-73.448727-161.419636-164.072728-161.419636-40.727273 0-77.917091 14.685091-106.589091 38.842181V275.735273c0-18.897455 15.592727-34.210909 34.769455-34.210909h54.760727v34.164363c0 37.538909 31.045818 68.072727 69.213091 68.072728h276.736c38.167273 0 69.213091-30.533818 69.213091-68.072728v-34.048-0.139636h54.807273c19.223273 0 34.769455 15.36 34.816 34.210909z" fill="#0061b0" p-id="6955"></path></svg>