<?xml version="1.0" standalone="no"?><!DOCTYPE svg PUBLIC "-//W3C//DTD SVG 1.1//EN" "http://www.w3.org/Graphics/SVG/1.1/DTD/svg11.dtd"><svg t="1720687753502" class="icon" viewBox="0 0 1024 1024" version="1.1" xmlns="http://www.w3.org/2000/svg" p-id="50505" xmlns:xlink="http://www.w3.org/1999/xlink" width="48" height="48"><path d="M165.3248 893.1328a87.5008 87.5008 0 0 1-87.3472-87.4496V180.1216a86.528 86.528 0 0 1 25.6-61.44 87.6544 87.6544 0 0 1 61.44-25.6h330.5472a87.5008 87.5008 0 0 1 87.3472 87.04v424.3456a225.9456 225.9456 0 0 0-19.4048 256 87.04 87.04 0 0 1-67.9936 32.4608z m29.0304-474.2144a23.296 23.296 0 1 0 0 46.5408h139.6224a23.296 23.296 0 0 0 0-46.5408z m0-116.3776a23.296 23.296 0 1 0 0 46.5408h232.704a23.296 23.296 0 1 0 0-46.5408z m0-116.3776a23.296 23.296 0 1 0 0 46.5408h232.704a23.296 23.296 0 1 0 0-46.5408z m710.2976 388.1984a225.28 225.28 0 0 0-145.9712-53.7088h-0.4608a225.28 225.28 0 0 0-115.2 31.7952V180.1216a87.04 87.04 0 0 1 87.04-87.04h87.04a87.4496 87.4496 0 0 1 87.296 87.04v394.24z m-129.792-373.248a46.4384 46.4384 0 0 0-8.6528 0.8192 45.1584 45.1584 0 1 0 8.6528-0.8192z" fill="#4fd75e" p-id="50506"></path><path d="M762.2144 930.9184a183.808 183.808 0 0 1-129.9968-313.8048 184.32 184.32 0 0 1 185.9584-45.1072l-155.8528 207.8208v79.9232l79.9232-19.968 159.3344-212.48a183.808 183.808 0 0 1-139.3664 303.616z" fill="#4fd75e" opacity=".5" p-id="50507"></path><path d="M881.3568 621.1072l-47.5648-34.56 24.32-33.8432 47.3088 33.8432z" fill="#4fd75e" opacity=".5" p-id="50508"></path><path d="M682.7008 834.56v-47.36l142.0288-189.44 47.36 35.5328-142.0288 189.44z" fill="#4fd75e" opacity=".5" p-id="50509"></path></svg>