<?xml version="1.0" standalone="no"?><!DOCTYPE svg PUBLIC "-//W3C//DTD SVG 1.1//EN" "http://www.w3.org/Graphics/SVG/1.1/DTD/svg11.dtd"><svg t="1727316060982" class="icon" viewBox="0 0 1037 1024" version="1.1" xmlns="http://www.w3.org/2000/svg" p-id="22187" xmlns:xlink="http://www.w3.org/1999/xlink" width="48.609375" height="48"><path d="M0 0m240.906013 0l555.936953 0q240.906013 0 240.906012 240.906013l0 542.187974q0 240.906013-240.906012 240.906013l-555.936953 0q-240.906013 0-240.906013-240.906013l0-542.187974q0-240.906013 240.906013-240.906013Z" fill="#fea03c" p-id="22188" data-spm-anchor-id="a313x.search_index.0.i7.3ece3a81TIv2yS" class="selected"></path><path d="M518.874489 597.78167a251.666083 251.666083 0 1 1 251.666083-251.666083A251.666083 251.666083 0 0 1 518.874489 597.78167z m0-444.151781a193.083479 193.083479 0 1 0 193.083479 192.485698 193.083479 193.083479 0 0 0-193.083479-193.681261z" fill="#FFFFFF" p-id="22189"></path><path d="M852.436661 930.148278a28.69352 28.69352 0 0 1-29.291302-29.291302 304.27087 304.27087 0 0 0-608.54174 0 29.291302 29.291302 0 0 1-29.291301 29.291302 31.084647 31.084647 0 0 1-20.922359-8.368943 29.889083 29.889083 0 0 1-8.368943-20.922359 362.853473 362.853473 0 0 1 725.706947 0 29.889083 29.889083 0 0 1-8.368944 20.922359 31.084647 31.084647 0 0 1-20.922358 8.368943z" fill="#FFFFFF" p-id="22190"></path></svg>