<?xml version="1.0" standalone="no"?><!DOCTYPE svg PUBLIC "-//W3C//DTD SVG 1.1//EN" "http://www.w3.org/Graphics/SVG/1.1/DTD/svg11.dtd"><svg t="1724054129170" class="icon" viewBox="0 0 1024 1024" version="1.1" xmlns="http://www.w3.org/2000/svg" p-id="59049" xmlns:xlink="http://www.w3.org/1999/xlink" width="48" height="48"><path d="M934.839979 647.597172v204.383115a20.054339 20.054339 0 0 1-12.484594 18.628155l-390.55496 153.391558V673.202657l45.988943 59.790015a60.163017 60.163017 0 0 0 48.13919 24.376773 57.047354 57.047354 0 0 0 21.94129-4.103021zM500.490204 662.341718c-5.112321 59.241483-8.403514 252.08348-8.600986 361.438869L101.663377 870.586501a20.07628 20.07628 0 0 1-12.901478-18.628155v-204.383116l274.617184 100.929934 1.843069 0.614356 10.838997 4.08108a55.204285 55.204285 0 0 0 21.699936 4.103021 59.680309 59.680309 0 0 0 47.524834-23.543004z" fill="#00628C" p-id="59050"></path><path d="M1011.437022 568.12582a19.308335 19.308335 0 0 1-12.484594 13.515834L633.213067 716.185644a20.822284 20.822284 0 0 1-6.955389 1.426184 19.747161 19.747161 0 0 1-15.973259-8.184101l-78.24264-102.4-19.747161-25.802957-6.143561 8.403514-92.153418 119.799443a19.747161 19.747161 0 0 1-16.126848 8.184101 21.392758 21.392758 0 0 1-6.97733-1.426184L24.978569 581.641654a19.637454 19.637454 0 0 1-8.381573-31.332162l102.4-123.485579c0.416885-0.416885 0.811828-0.614356 1.228713-1.031241 1.228712-1.228712 2.654896-2.194129 3.883608-3.269252a15.095607 15.095607 0 0 1 2.457424-1.228712c0.614356-0.197472 1.228712-0.614356 1.843069-0.811828l279.532033-87.76516v41.973688l-204.053996 64.112449 287.935547 82.938076v-39.494322h40.13062v39.494322l288.133019-82.938076-204.053996-64.309921V332.410542l279.334561 88.072338c0.614356 0.197472 1.228712 0.614356 1.843069 0.811828a15.095607 15.095607 0 0 1 2.457424 1.228712 29.313563 29.313563 0 0 1 3.883609 3.488665 3.730019 3.730019 0 0 1 1.228712 0.811828l102.4 123.485579a19.747161 19.747161 0 0 1 4.388258 17.816328z" fill="#00628C" p-id="59051"></path><path d="M416.937772 232.248554a20.624813 20.624813 0 0 0-17.399443 9.829698 19.615513 19.615513 0 0 0-0.219413 20.07628l94.830255 170.154703c7.372273 12.901478 28.06291 12.901478 35.21577 0l94.830255-170.154703a19.615513 19.615513 0 0 0-0.219412-20.07628 20.251811 20.251811 0 0 0-17.201972-9.829698h-31.178573V20.07628A20.120163 20.120163 0 0 0 555.518959 0h-87.43604a20.098222 20.098222 0 0 0-20.07628 20.07628v212.172274z" fill="#00628C" p-id="59052"></path></svg>