<?xml version="1.0" standalone="no"?><!DOCTYPE svg PUBLIC "-//W3C//DTD SVG 1.1//EN" "http://www.w3.org/Graphics/SVG/1.1/DTD/svg11.dtd"><svg t="1724052905499" class="icon" viewBox="0 0 1024 1024" version="1.1" xmlns="http://www.w3.org/2000/svg" p-id="54832" xmlns:xlink="http://www.w3.org/1999/xlink" width="48" height="48"><path d="M491.837449 1018.169861L59.838338 752.002666a32.591901 32.591901 0 0 1-16.011554-27.728712V258.516914a31.624951 31.624951 0 0 1 6.029217-18.485808 78.834861 78.834861 0 0 1 41.066934-49.655724L425.117902 20.561906a193.389991 193.389991 0 0 1 173.482198 0l334.081208 169.813476a81.877909 81.877909 0 0 1 33.246015 30.714881 71.952452 71.952452 0 0 1 7.053047 58.927067 78.550464 78.550464 0 0 1-40.299062 46.442038l-334.081208 169.927234a192.423041 192.423041 0 0 1-173.482198 0L92.828395 327.426318v385.613953l390.989057 236.902738V582.331389a26.790202 26.790202 0 0 1 28.098428-28.951619 27.245237 27.245237 0 0 1 28.695662 28.951619v367.042826l389.197356-236.362384v-321.36866a24.657224 24.657224 0 0 1 24.515025-27.273677 25.368216 25.368216 0 0 1 25.595734 27.273677v332.744542a32.876298 32.876298 0 0 1-16.011553 27.728712l-432.14131 266.167194a37.654169 37.654169 0 0 1-19.907793 5.687941 38.251403 38.251403 0 0 1-20.021552-5.801699zM459.785902 63.50586L107.645481 245.747487s-10.295173 5.375104-8.247514 12.996944a29.662612 29.662612 0 0 0 10.636449 13.651059l349.808365 175.245459a114.924846 114.924846 0 0 0 104.032439 0l353.932123-183.86269a11.176804 11.176804 0 0 0 5.687941-6.598011 10.010776 10.010776 0 0 0-1.080709-8.332834 10.238294 10.238294 0 0 0-4.664112-4.436594L563.818341 63.50586a115.863356 115.863356 0 0 0-104.032439 0z" fill="#0061b0" p-id="54833"></path><path d="M679.880775 646.548242a34.724879 34.724879 0 0 1-36.004666-33.274454v-180.535244l-270.177193-145.639727a32.790979 32.790979 0 0 1-17.831694-29.80481 33.217575 33.217575 0 0 1 19.907793-28.695662l144.018663-66.548909a38.592679 38.592679 0 0 1 34.127646 1.02383l288.008887 155.280786a32.876298 32.876298 0 0 1 17.860135 28.752541v199.646726a33.103816 33.103816 0 0 1-19.907793 29.77637l-144.018664 66.548909a38.422041 38.422041 0 0 1-15.983114 3.469644zM467.493062 260.593012l230.532245 124.281509a32.876298 32.876298 0 0 1 17.860134 28.752541v145.810365l72.009332-33.274454v-159.973338l-253.340888-136.510582z" fill="#0061b0" opacity=".8" p-id="54834"></path></svg>