<?xml version="1.0" standalone="no"?><!DOCTYPE svg PUBLIC "-//W3C//DTD SVG 1.1//EN" "http://www.w3.org/Graphics/SVG/1.1/DTD/svg11.dtd"><svg t="1737011896373" class="icon" viewBox="0 0 1024 1024" version="1.1" xmlns="http://www.w3.org/2000/svg" p-id="5117" xmlns:xlink="http://www.w3.org/1999/xlink" width="48" height="48"><path d="M1016.652861 337.917184a43.633414 43.633414 0 0 0-26.794443-23.32425l-419.324506-146.999664a35.669036 35.669036 0 0 0-46.307169 20.991825 33.393499 33.393499 0 0 0 21.958928 44.316075l263.336472 91.021464h-682.660978l375.463538-259.069841A35.669036 35.669036 0 0 0 511.995733 15.814979a37.091246 37.091246 0 0 0-51.199573-9.3297L26.794443 307.538771A60.131054 60.131054 0 0 0 0 356.519696V977.342967a47.900045 47.900045 0 0 0 48.753371 46.6485h926.484724a47.900045 47.900045 0 0 0 48.753372-46.6485v-373.415555a36.579251 36.579251 0 0 0-73.158502 0v350.034416H73.158501V394.009161h877.674464v70.029639a35.15704 35.15704 0 0 0 36.579251 34.986375 36.693028 36.693028 0 0 0 36.579251-35.100152V358.909009a36.579251 36.579251 0 0 0-7.338606-20.991825z" fill="#409EFF" p-id="5118"></path><path d="M824.938903 775.559759h-318.575123a39.82189 39.82189 0 0 0 0 79.643781h318.575123a39.82189 39.82189 0 1 0 0-79.643781z m0-159.287561h-238.931342a39.82189 39.82189 0 0 0 0 79.64378h238.931342a39.82189 39.82189 0 1 0 0-79.64378z" fill="#409EFF" p-id="5119"></path></svg>