<?xml version="1.0" standalone="no"?><!DOCTYPE svg PUBLIC "-//W3C//DTD SVG 1.1//EN" "http://www.w3.org/Graphics/SVG/1.1/DTD/svg11.dtd"><svg t="1735621934957" class="icon" viewBox="0 0 1152 1024" version="1.1" xmlns="http://www.w3.org/2000/svg" p-id="8633" xmlns:xlink="http://www.w3.org/1999/xlink" width="54" height="48"><path d="M489.388095 1019.317228L18.833445 759.666456a46.060056 46.060056 0 0 1-18.500789-31.934972V258.353925a39.381348 39.381348 0 0 1 22.876494-40.942272L487.801582 3.488282a39.406937 39.406937 0 0 1 32.497928 0l472.93442 207.270252a36.2595 36.2595 0 0 1 18.500789 18.193722 39.586059 39.586059 0 0 1 2.789192 8.265221 35.517421 35.517421 0 0 1 4.119816 17.067809v143.297952a31.448783 31.448783 0 0 1-29.708736 34.314742c-17.656355 0-24.718897-15.353352-24.718897-34.314742l-0.537367-95.625794-426.772008 234.394508 2.251825 406.479994-0.793256 2.942726 144.091208-66.915026c12.129148-5.629562 41.146983-10.67058 47.672158 2.098291l3.275382 6.39723a32.190861 32.190861 0 0 1-16.325731 44.268832l-189.997731 88.767963a36.157144 36.157144 0 0 1-19.012567 3.32656h-4.682773a16.223375 16.223375 0 0 1-2.558892 0.179122 17.016632 17.016632 0 0 1-11.438247-4.580416z m-415.640828-312.184824l389.949552 219.3994v-414.540504L73.747267 316.952552z m12.001204-458.860514l426.772008 214.946928 414.540504-219.3994-414.540504-170.703685z m697.681904 622.885491a74.412579 74.412579 0 0 1-21.980883-52.815531 74.438168 74.438168 0 0 1 21.980883-52.84112l86.132304-86.183482a17.246932 17.246932 0 0 1 24.872431 0 17.170165 17.170165 0 0 1 0 24.87243l-86.106716 85.28787a40.123427 40.123427 0 0 0 0 55.937379 40.149015 40.149015 0 0 0 55.91179 0l86.183483-86.132304a17.118987 17.118987 0 0 1 24.821252 0 20.215247 20.215247 0 0 1 0.895612 26.612476l-86.106716 85.287871a74.054334 74.054334 0 0 1-53.276131 22.185593 76.101448 76.101448 0 0 1-53.352898-22.211182z m205.120782 7.11372l-10.64499-40.942272a17.221343 17.221343 0 0 1 12.436215-21.34116 17.246932 17.246932 0 0 1 21.289981 12.436215l10.644991 40.942272a17.221343 17.221343 0 0 1-12.385037 21.34116 8.034921 8.034921 0 0 1-4.478061 0.895612 17.195754 17.195754 0 0 1-16.863099-13.331827zM1074.73464 838.275619l-30.194926-30.143748a17.170165 17.170165 0 0 1 0-24.87243 17.118987 17.118987 0 0 1 24.821253 0l30.194925 30.194925a17.118987 17.118987 0 0 1 0 24.821253 17.374877 17.374877 0 0 1-12.436215 5.373673 17.323699 17.323699 0 0 1-12.385037-5.373673z m54.120566-77.227361l-40.942272-10.696168a17.75871 17.75871 0 0 1-12.436215-22.185594 17.912244 17.912244 0 0 1 22.236771-12.436215l40.942272 10.644991a16.709565 16.709565 0 0 1 11.540603 22.236771 17.144576 17.144576 0 0 1-16.863098 13.280649c-1.791224 0.025589-2.686837-0.844434-4.478061-0.844434z m-111.004735-46.213589a17.144576 17.144576 0 0 1 0-24.872431l85.28787-87.002328a38.920747 38.920747 0 0 0 11.540603-27.508089 39.023103 39.023103 0 0 0-11.540603-27.559266 39.176637 39.176637 0 0 0-27.559267-11.540603 39.151048 39.151048 0 0 0-27.508089 11.540603l-85.28787 87.002328a17.093399 17.093399 0 0 1-24.821252 0 17.144576 17.144576 0 0 1 0-24.872431l85.236692-87.002328a74.566113 74.566113 0 0 1 53.276131-22.236771 74.38699 74.38699 0 0 1 53.276132 22.236771 74.412579 74.412579 0 0 1 22.236771 53.301721 74.566113 74.566113 0 0 1-22.236771 53.276131l-87.002328 85.236693a17.400466 17.400466 0 0 1-12.436215 5.322495 17.477232 17.477232 0 0 1-12.461804-5.348084z m-202.485124-37.257468l-40.942272-10.696168a18.168133 18.168133 0 0 1-13.331828-22.185594 17.912244 17.912244 0 0 1 22.236772-12.436215l40.942272 10.64499a17.912244 17.912244 0 0 1 12.436215 22.236772 17.144576 17.144576 0 0 1-16.863098 13.306238c-1.791224-0.025589-2.686837-0.870023-4.478061-0.870023z m28.454879-67.52916l-30.194926-30.194925a17.170165 17.170165 0 0 1 0-24.872431 17.118987 17.118987 0 0 1 24.821253 0l30.194925 30.194926a17.170165 17.170165 0 0 1 0 24.87243 17.502821 17.502821 0 0 1-12.436215 5.322496 17.477232 17.477232 0 0 1-12.385037-5.296907z m-532.249536-27.840745l-156.092412-85.364637a36.438622 36.438622 0 0 1-12.001204-46.469479 37.001578 37.001578 0 0 1 50.94754-7.676676l157.80687 86.618495a31.141716 31.141716 0 0 1 13.434183 44.038531c-5.322495 12.487393-15.17423 15.020696-29.964626 15.660419a62.590498 62.590498 0 0 1-24.027995-6.806653z m589.850195-17.426054l-10.644991-40.942272a17.221343 17.221343 0 0 1 12.385037-21.34116 17.272521 17.272521 0 0 1 21.34116 12.436216l10.64499 40.942272a17.221343 17.221343 0 0 1-12.436215 21.341159 8.188454 8.188454 0 0 1-4.426883 0.844434 17.06781 17.06781 0 0 1-16.760743-13.25506z" fill="#0099FF" p-id="8634"></path></svg>