<?xml version="1.0" standalone="no"?><!DOCTYPE svg PUBLIC "-//W3C//DTD SVG 1.1//EN" "http://www.w3.org/Graphics/SVG/1.1/DTD/svg11.dtd"><svg t="1720687161846" class="icon" viewBox="0 0 1024 1024" version="1.1" xmlns="http://www.w3.org/2000/svg" p-id="36621" xmlns:xlink="http://www.w3.org/1999/xlink" width="48" height="48"><path d="M923.66848 909.952c-13.58848 0-26.22976-5.32992-35.59936-15.01184l-133.28384-133.05856c-26.8032 20.49024-55.46496 36.97152-85.29408 49.02912-46.73024 19.4816-95.97952 29.34784-146.36032 29.34784-111.7184 0-217.52832-49.28-290.29888-135.2192-15.55968-18.03776-19.8144-38.71232-11.6224-56.64256 7.6288-16.65024 24.66304-26.98752 44.45184-26.98752 18.40128 0 36.67456 8.96 51.456 25.2416 52.74112 57.94816 127.83104 91.19232 206.00832 91.19232a279.33184 279.33184 0 0 0 107.03872-21.13024c34.23232-14.11072 64.6912-34.3808 90.55232-60.24192 26.80832-26.98752 47.34464-57.728 61.02016-91.36128l0.03584-0.08192c13.81376-32.94208 21.11488-69.79584 21.11488-106.56768 0-36.03456-6.90176-71.552-20.50048-105.55904a278.784 278.784 0 0 0-59.58144-90.6496c-28.5952-27.9808-58.85952-48.2048-92.53888-61.83424l-0.1792-0.0768c-32.61952-14.11072-68.608-21.26336-106.96704-21.26336-109.74208 0-209.85856 65.4592-255.06304 166.7584-8.36608 18.70848-26.24512 30.32576-46.6688 30.32576-17.53088 0-32.74752-8.11008-42.84928-22.84032l-0.12288-0.18944c-9.62048-14.88384-10.9824-32.22016-3.83488-48.82432l0.03584-0.08704C234.99264 168.19712 375.05024 76.8 523.13088 76.8a381.51168 381.51168 0 0 1 146.432 29.12768c45.78816 18.93376 88.52992 47.53408 123.60192 82.70336 36.0448 36.4288 63.13984 76.81024 82.85696 123.47392 19.32288 46.9504 29.1072 96.16384 29.1072 146.35008 0 49.94048-9.7792 98.9184-29.0816 145.57696-12.8256 30.98112-29.2608 59.81184-48.90624 85.82144l132.608 132.97152c9.66656 9.34912 15.04256 21.98016 15.16032 35.57888 0.10752 13.54752-5.248 26.68032-14.72 36.02944-9.34912 9.86624-22.65088 15.51872-36.52096 15.51872z" fill="#036EB8" p-id="36622"></path><path d="M282.76224 583.68c-5.39136 0-10.30656-3.11808-12.72832-8.12544l-24.7296-50.09408-12.9792 13.67552a13.12256 13.12256 0 0 1-3.58912 2.83648c-1.95072 1.22368-4.69504 1.98656-7.36768 1.98656a14.67392 14.67392 0 0 1-12.32384-6.71232l-32.85504-52.67456-30.52544 51.31776c-2.10944 4.40832-7.18336 7.53152-12.69248 7.53152H60.43648c-8.192 0-14.6176-6.43072-14.6176-14.67904a14.62784 14.62784 0 0 1 14.6176-14.6176h64.29696l38.656-65.11616a14.4384 14.4384 0 0 1 12.63104-7.24992c2.5856 0 5.20192 0.72704 7.40352 1.98656 2.048 1.29536 3.52768 2.8672 4.79232 4.75648l35.63008 57.18016 14.67904-15.55968a15.24224 15.24224 0 0 1 10.61888-4.44416c3.8144 0 7.3728 1.44896 10.07616 4.10112 1.64352 1.98144 2.4576 3.0208 3.09248 4.31616l16.06656 32.34816 24.576-104.2432a14.6944 14.6944 0 0 1 14.26944-11.18208l3.47136 0.40448c3.05664 0.91648 5.09952 2.176 6.8352 4.06528l41.51808 41.84064a14.80192 14.80192 0 0 1-0.25088 20.59776 14.39744 14.39744 0 0 1-10.20928 4.16256 14.26944 14.26944 0 0 1-10.3936-4.34688l-22.99904-23.15264-28.06272 117.82144c-0.72704 4.224-3.87584 8.06912-8.00256 9.73824-1.55136 0.8704-4.00896 1.53088-6.36928 1.53088z" fill="#00A0E9" p-id="36623"></path><path d="M415.36 412.42112h75.52512c1.42336-7.2192 2.70336-14.4384 3.84512-21.6576H386.86208v-33.62816h72.39168a833.16736 833.16736 0 0 0-21.376-26.21952l37.04832-11.68384c10.63936 11.02336 19.85536 21.18656 27.64288 30.49472l-21.51936 7.40864h62.99136a874.21952 874.21952 0 0 0 30.06464-38.4768l38.7584 11.40224-23.36768 27.07456h74.38336v33.62816H536.6272l-4.41856 21.6576h106.58816v188.672h-41.04192v-16.8192h-141.3632v16.8192h-41.04192v-188.672z m182.40512 31.9232h-141.3632v16.24576h141.3632v-16.24576z m-141.3632 62.1312h141.3632v-16.25088h-141.3632v16.25088z m0 45.88032h141.3632v-16.24064h-141.3632v16.24064z" p-id="36624"></path></svg>