<?xml version="1.0" standalone="no"?><!DOCTYPE svg PUBLIC "-//W3C//DTD SVG 1.1//EN" "http://www.w3.org/Graphics/SVG/1.1/DTD/svg11.dtd"><svg t="1722304372271" class="icon" viewBox="0 0 1026 1024" version="1.1" xmlns="http://www.w3.org/2000/svg" p-id="8003" xmlns:xlink="http://www.w3.org/1999/xlink" width="48.09375" height="48"><path d="M427.52 433.664a5.12 5.12 0 0 0-5.12 5.632 5.12 5.12 0 0 0 5.12 5.12 5.632 5.632 0 0 0 5.12-5.12 5.632 5.632 0 0 0-5.12-5.632zM515.072 605.184a5.632 5.632 0 0 0-5.12 5.12 5.12 5.12 0 0 0 5.12 5.12 4.608 4.608 0 0 0 5.12-5.12 5.12 5.12 0 0 0-5.12-5.12zM419.84 605.184a5.12 5.12 0 0 0-5.12 5.12 4.608 4.608 0 0 0 5.12 5.12 5.12 5.12 0 0 0 5.12-5.12 5.632 5.632 0 0 0-5.12-5.12zM528.896 502.784a5.12 5.12 0 0 0-5.12 5.12 5.632 5.632 0 0 0 5.12 5.12 5.12 5.12 0 0 0 5.12-5.12 4.608 4.608 0 0 0-5.12-5.12zM673.792 444.416a5.12 5.12 0 0 0 5.12-5.12 5.12 5.12 0 1 0-10.24 0 5.12 5.12 0 0 0 5.12 5.12zM443.904 487.424a5.12 5.12 0 0 0 0-10.24 5.12 5.12 0 0 0 0 10.24zM236.032 603.648a6.656 6.656 0 0 0-6.656 6.656 6.656 6.656 0 0 0 6.656 7.168 7.168 7.168 0 0 0 7.168-7.168 6.656 6.656 0 0 0-7.168-6.656zM318.976 441.344a7.168 7.168 0 0 0 7.168-7.168 6.656 6.656 0 0 0-7.168-6.656 6.656 6.656 0 0 0-6.656 6.656 6.656 6.656 0 0 0 6.656 7.168zM312.832 576.512a6.656 6.656 0 1 0 0 13.312 6.656 6.656 0 0 0 0-13.312zM577.536 507.904a5.12 5.12 0 0 0-5.12-5.12 4.608 4.608 0 0 0-5.12 5.12 5.12 5.12 0 0 0 5.12 5.12 5.632 5.632 0 0 0 5.12-5.12zM372.736 476.16a6.656 6.656 0 0 0-7.168 6.656 7.168 7.168 0 0 0 7.168 7.168 6.656 6.656 0 0 0 6.656-7.168 6.656 6.656 0 0 0-6.656-6.656zM398.848 563.2a5.12 5.12 0 0 0-5.12 5.12 4.608 4.608 0 0 0 5.12 5.12 5.12 5.12 0 0 0 5.12-5.12 5.632 5.632 0 0 0-5.12-5.12zM657.408 477.184a5.12 5.12 0 1 0 5.12 5.12 4.608 4.608 0 0 0-5.12-5.12zM702.464 563.2a5.632 5.632 0 0 0-5.12 5.12 5.12 5.12 0 0 0 5.12 5.12 4.608 4.608 0 0 0 5.12-5.12 5.12 5.12 0 0 0-5.12-5.12zM788.48 576.512a6.656 6.656 0 1 0 0 13.312 6.656 6.656 0 1 0 0-13.312zM728.576 476.16a6.656 6.656 0 0 0-6.656 6.656 6.656 6.656 0 0 0 6.656 7.168 7.168 7.168 0 0 0 7.168-7.168 6.656 6.656 0 0 0-7.168-6.656zM782.336 427.52a6.656 6.656 0 0 0-7.168 6.656 7.168 7.168 0 0 0 7.168 7.168 6.656 6.656 0 0 0 6.656-7.168 6.656 6.656 0 0 0-6.656-6.656zM865.28 603.648a6.656 6.656 0 0 0-7.168 6.656 7.168 7.168 0 0 0 7.168 7.168 6.656 6.656 0 0 0 6.656-7.168 6.656 6.656 0 0 0-6.656-6.656z" fill="#006487" p-id="8004"></path><path d="M586.24 610.304m-5.12 0a5.12 5.12 0 1 0 10.24 0 5.12 5.12 0 1 0-10.24 0Z" fill="#006487" p-id="8005"></path><path d="M908.8 336.384h-716.8a28.672 28.672 0 0 0-28.672 28.672v319.488a28.672 28.672 0 0 0 28.672 28.672h716.8a28.672 28.672 0 0 0 28.672-28.672V365.056a28.672 28.672 0 0 0-28.672-28.672zM236.032 629.76a19.456 19.456 0 0 1-6.656-37.376V503.296l71.168-62.464a26.112 26.112 0 0 1 0-6.656 19.456 19.456 0 1 1 19.456 19.456A18.432 18.432 0 0 1 307.2 450.56L242.176 508.928v82.944a19.456 19.456 0 0 1-6.144 37.888z m125.952-130.56l-43.008 34.304V563.2a19.456 19.456 0 1 1-25.6 18.432A18.944 18.944 0 0 1 307.2 563.2v-35.84l48.128-37.888a13.824 13.824 0 0 1 0-6.656 19.456 19.456 0 1 1 19.456 19.456 18.944 18.944 0 0 1-12.8-3.072z m18.944 68.096a17.92 17.92 0 0 1 17.92-17.92 18.944 18.944 0 0 1 10.24 3.584l28.672-24.064v-29.696a18.432 18.432 0 0 1-11.776-16.896 17.92 17.92 0 0 1 35.84 0 17.408 17.408 0 0 1-11.264 16.384v36.352l-34.304 28.16v4.096a17.92 17.92 0 0 1-35.84 0z m134.144 60.928a17.408 17.408 0 0 1-16.384-11.264H436.224a17.408 17.408 0 0 1-16.384 11.264 17.92 17.92 0 1 1 0-35.328 17.408 17.408 0 0 1 16.384 11.264h62.464a17.408 17.408 0 0 1 16.384-11.264 17.92 17.92 0 1 1 0 35.328z m13.824-102.4a17.92 17.92 0 0 1-16.896-17.92 17.92 17.92 0 0 1 7.168-13.824l-21.504-51.2h-51.2a17.408 17.408 0 0 1-16.384 11.264 17.92 17.92 0 1 1 0-35.328 17.408 17.408 0 0 1 16.384 11.264h58.368l25.088 57.344a17.408 17.408 0 0 1 16.896 17.92 17.92 17.92 0 0 1-17.92 20.48z m25.6-17.92a17.408 17.408 0 0 1 16.384-17.92l25.6-57.344h60.928a17.408 17.408 0 0 1 16.384-11.264 17.92 17.92 0 1 1 0 35.328 17.408 17.408 0 0 1-16.384-11.264h-51.2l-21.504 51.2a17.408 17.408 0 0 1 6.656 13.824 17.92 17.92 0 0 1-17.408 17.92 17.92 17.92 0 0 1-19.456-20.48z m126.976 120.32a17.408 17.408 0 0 1-16.384-11.264h-62.464a17.92 17.92 0 0 1-16.384 11.264 17.92 17.92 0 1 1 0-35.328 17.92 17.92 0 0 1 16.384 11.264H665.6a17.408 17.408 0 0 1 16.384-11.264 17.92 17.92 0 1 1 0 35.328z m20.992-43.008a17.92 17.92 0 0 1-17.92-17.92V563.2l-34.304-28.16v-36.352a17.408 17.408 0 0 1-11.264-16.384 17.92 17.92 0 0 1 35.84 0 18.432 18.432 0 0 1-11.776 16.896v29.696l28.672 24.064a18.944 18.944 0 0 1 10.24-3.584 17.92 17.92 0 0 1 0 35.84z m86.016 17.408a19.456 19.456 0 0 1-6.144-37.888v-31.232l-43.008-34.304a18.944 18.944 0 0 1-10.752 3.072 19.456 19.456 0 1 1 19.456-19.456 26.112 26.112 0 0 1 0 6.656l48.128 37.888v35.84a18.944 18.944 0 0 1 12.8 18.432 19.456 19.456 0 0 1-20.48 20.992z m76.8 27.136a19.456 19.456 0 0 1-6.144-37.888V508.928l-66.56-58.368a18.432 18.432 0 0 1-10.24 3.072 19.456 19.456 0 1 1 0-38.912 19.456 19.456 0 0 1 19.456 19.456 14.336 14.336 0 0 1 0 6.656L870.4 503.296v89.088a19.456 19.456 0 0 1-6.656 37.376z" fill="#006487" p-id="8006"></path><path d="M681.472 605.184a5.632 5.632 0 0 0-5.12 5.12 5.12 5.12 0 0 0 5.12 5.12 4.608 4.608 0 0 0 5.12-5.12 5.12 5.12 0 0 0-5.12-5.12z" fill="#006487" p-id="8007"></path><path d="M966.144 235.52h-36.864v-4.096a24.576 24.576 0 1 0-51.2 0v4.096h-51.2v-4.096a25.088 25.088 0 1 0-51.2 0v4.096h-51.2v-4.096a24.576 24.576 0 1 0-51.2 0v4.096h-51.2v-4.096a25.088 25.088 0 1 0-51.2 0v4.096h-51.2v-4.096a25.088 25.088 0 1 0-51.2 0v4.096h-51.2v-4.096a25.088 25.088 0 1 0-51.2 0v4.096h-51.2v-4.096a25.088 25.088 0 1 0-51.2 0v4.096h-51.2v-4.096A25.088 25.088 0 0 0 196.608 204.8a24.576 24.576 0 0 0-24.576 25.088v5.632h-36.864a51.2 51.2 0 0 0-51.2 47.616V768a51.2 51.2 0 0 0 51.2 47.104h36.864V819.2a24.576 24.576 0 0 0 24.576 24.576 25.088 25.088 0 0 0 24.576-24.576v-5.12h51.2v5.12a25.088 25.088 0 0 0 51.2 0v-5.12h51.2v5.12a25.088 25.088 0 0 0 51.2 0v-5.12h51.2v5.12a25.088 25.088 0 0 0 51.2 0v-5.12h51.2v5.12a25.088 25.088 0 0 0 51.2 0v-5.12h51.2v5.12a24.576 24.576 0 0 0 51.2 0v-5.12h51.2v5.12a25.088 25.088 0 0 0 51.2 0v-5.12h51.2v5.12a24.576 24.576 0 0 0 51.2 0v-5.12h36.864a51.2 51.2 0 0 0 51.2-47.104V283.136a51.2 51.2 0 0 0-59.904-47.616z m0 529.408H921.6a23.04 23.04 0 0 0-18.432-8.704 24.576 24.576 0 0 0-18.432 8.704h-62.464a24.576 24.576 0 0 0-37.376 0h-63.488a24.064 24.064 0 0 0-37.888 0h-62.976a24.576 24.576 0 0 0-19.456-9.216 24.064 24.064 0 0 0-18.944 9.216h-62.976a23.04 23.04 0 0 0-18.944-9.728 23.552 23.552 0 0 0-19.456 9.728H418.304a24.064 24.064 0 0 0-38.912 0H317.44a24.064 24.064 0 0 0-19.456-10.24 25.088 25.088 0 0 0-19.968 10.24H216.064a23.552 23.552 0 0 0-19.456-10.24 25.088 25.088 0 0 0-19.968 10.24H133.12V283.136h43.008a24.576 24.576 0 0 0 18.432 8.704 25.088 25.088 0 0 0 18.432-8.704h66.56a24.576 24.576 0 0 0 18.432 8.704 23.552 23.552 0 0 0 17.92-8.704h64.512a25.088 25.088 0 0 0 18.432 8.704 24.576 24.576 0 0 0 18.432-8.704h64.512a24.064 24.064 0 0 0 36.352 0h65.024a25.6 25.6 0 0 0 17.92 8.192 24.064 24.064 0 0 0 18.432-8.192h64.512a24.576 24.576 0 0 0 18.432 8.192 23.552 23.552 0 0 0 17.92-8.192h65.024a24.064 24.064 0 0 0 18.432 8.192 23.552 23.552 0 0 0 17.92-8.192h65.024a23.552 23.552 0 0 0 35.84 0h45.568z" fill="#006487" p-id="8008"></path><path d="M972.8 917.504l-3.072-41.984h-7.168l-3.072 41.984h-32.768l15.36 55.296H51.2V51.2h212.992l-15.872 60.416h32.768l3.072 41.984h4.608l3.072-44.032h32.768L307.2 37.888a23.04 23.04 0 0 0 3.072-13.312 24.576 24.576 0 0 0-24.576-24.576H51.2a51.2 51.2 0 0 0-51.2 51.2v921.6a51.2 51.2 0 0 0 51.2 51.2h913.92a25.088 25.088 0 0 0 25.088-25.088 23.04 23.04 0 0 0-5.12-13.824l18.432-67.584z" fill="#006487" p-id="8009"></path></svg>