<?xml version="1.0" standalone="no"?><!DOCTYPE svg PUBLIC "-//W3C//DTD SVG 1.1//EN" "http://www.w3.org/Graphics/SVG/1.1/DTD/svg11.dtd"><svg t="1727096141551" class="icon" viewBox="0 0 1024 1024" version="1.1" xmlns="http://www.w3.org/2000/svg" p-id="7668" xmlns:xlink="http://www.w3.org/1999/xlink" width="48" height="48"><path d="M171.758933 785.476267a34.133333 34.133333 0 0 0 34.133334 34.133333h612.215466a34.133333 34.133333 0 0 0 34.133334-34.133333V536.917333a340.241067 340.241067 0 1 0-680.482134 0v248.490667zM336.349867 549.546667h54.613333a6.826667 6.826667 0 0 1 6.826667 6.826666v263.168h-68.266667V556.373333a6.826667 6.826667 0 0 1 6.826667-6.826666zM197.290667 267.605333l42.257066-42.257066a8.533333 8.533333 0 0 0 0-12.0832L167.048533 140.9024a8.533333 8.533333 0 0 0-12.0832 0l-42.1888 42.1888a8.533333 8.533333 0 0 0 0 12.0832l72.362667 72.362667a8.533333 8.533333 0 0 0 12.0832 0z m714.274133-84.514133l-42.325333-42.257067a8.533333 8.533333 0 0 0-12.014934 0l-72.362666 72.430934a8.533333 8.533333 0 0 0 0 12.0832l42.1888 42.257066a8.533333 8.533333 0 0 0 12.0832 0l72.362666-72.430933a8.533333 8.533333 0 0 0 0-12.0832zM853.333333 887.876267H170.666667a34.133333 34.133333 0 0 0-34.133334 34.133333v25.6c0 4.642133 3.822933 8.533333 8.533334 8.533333h733.866666a8.533333 8.533333 0 0 0 8.533334-8.533333v-25.6a34.133333 34.133333 0 0 0-34.133334-34.133333zM482.0992 128.341333h59.733333a8.533333 8.533333 0 0 0 8.533334-8.533333v-102.4A8.533333 8.533333 0 0 0 541.9008 8.874667h-59.733333a8.533333 8.533333 0 0 0-8.533334 8.533333v102.4c0 4.642133 3.8912 8.533333 8.533334 8.533333z" fill="#60769C" p-id="7669"></path></svg>