<?xml version="1.0" standalone="no"?><!DOCTYPE svg PUBLIC "-//W3C//DTD SVG 1.1//EN" "http://www.w3.org/Graphics/SVG/1.1/DTD/svg11.dtd"><svg t="1724051481871" class="icon" viewBox="0 0 1024 1024" version="1.1" xmlns="http://www.w3.org/2000/svg" p-id="4790" width="48" height="48" xmlns:xlink="http://www.w3.org/1999/xlink"><path d="M533.333333 876.373333a27.861333 27.861333 0 0 1-27.605333-27.989333v-380.288a37.546667 37.546667 0 0 1 24.533333-35.072l105.984-37.845333a2.133333 2.133333 0 0 1 1.024 0 3.2 3.2 0 0 1 3.157334 3.242666v152.192a6.4 6.4 0 0 0 8.832 5.632l33.877333-17.066666a12.288 12.288 0 0 0 6.613333-11.136V380.501333a6.272 6.272 0 0 1 4.266667-5.888l157.525333-56.064a18.261333 18.261333 0 0 1 24.789334 17.408c0 41.386667 0 127.658667 0.256 249.386667a217.6 217.6 0 0 0-132.010667-44.032 219.605333 219.605333 0 0 0-190.933333 328.064c-1.322667 0.64-2.645333 1.28-3.925334 2.005333s-2.602667 1.28-3.882666 1.92a26.368 26.368 0 0 1-12.501334 3.072z m-104.96-2.048a28.032 28.032 0 0 1-13.269333-3.456l-290.773333-155.904A74.581333 74.581333 0 0 1 85.333333 649.728c0-9.6 0-236.970667 0.256-315.008a18.56 18.56 0 0 1 18.432-18.645333 18.688 18.688 0 0 1 6.357334 1.194666l321.152 115.754667a36.864 36.864 0 0 1 24.533333 34.858667v378.752a27.733333 27.733333 0 0 1-27.690667 27.690666z m52.736-480.597333a74.24 74.24 0 0 1-25.301333-4.266667l-333.653333-120.490666a9.344 9.344 0 0 1-1.962667-16.597334 81.578667 81.578667 0 0 1 13.226667-6.442666l103.552-38.954667a13.994667 13.994667 0 0 1 4.266666-0.725333 11.349333 11.349333 0 0 1 4.778667 1.066666l345.6 139.946667a6.272 6.272 0 0 1 3.84 5.973333 5.888 5.888 0 0 1-4.266667 5.504l-85.290666 30.72a77.269333 77.269333 0 0 1-24.789334 4.266667z m195.626667-66.048a13.653333 13.653333 0 0 1-4.778667-0.896L317.184 182.741333a3.157333 3.157333 0 0 1-1.92-2.816 3.285333 3.285333 0 0 1 1.92-2.901333l137.685333-51.669333a74.624 74.624 0 0 1 52.010667 0l321.152 119.893333a65.408 65.408 0 0 1 15.445333 7.722667 9.557333 9.557333 0 0 1 4.266667 9.130666 9.130667 9.130667 0 0 1-6.016 7.424l-160.896 57.344a13.269333 13.269333 0 0 1-4.096 0.64z" fill="#0061b0" p-id="4791"></path><path d="M746.666667 956.117333a192 192 0 1 1 192-192 192 192 0 0 1-192 192z m78.976-287.018666c-6.058667 0-8.533333 6.784-8.533334 6.826666l-183.850666 177.024s1.664 6.357333 16.682666 6.357334a77.610667 77.610667 0 0 0 10.666667-0.810667 374.613333 374.613333 0 0 0 139.178667-58.197333c13.909333-8.234667 19.498667-13.226667 19.882666-17.749334s-4.736-9.045333-13.269333-16.128l-0.853333-0.725333c-1.024 0-19.541333-16.554667-20.309334-17.066667l52.437334-51.669333a11.050667 11.050667 0 0 0 6.442666-6.912c0.896-4.010667-1.28-8.746667-6.442666-14.08a18.389333 18.389333 0 0 0-12.032-6.869333z" fill="#0061b0" p-id="4792"></path></svg>