<?xml version="1.0" standalone="no"?><!DOCTYPE svg PUBLIC "-//W3C//DTD SVG 1.1//EN" "http://www.w3.org/Graphics/SVG/1.1/DTD/svg11.dtd"><svg t="1720684699017" class="icon" viewBox="0 0 1024 1024" version="1.1" xmlns="http://www.w3.org/2000/svg" p-id="20624" width="48" height="48" xmlns:xlink="http://www.w3.org/1999/xlink"><path d="M960 0a64 64 0 0 1 64 64v896a64 64 0 0 1-64 64H64a64 64 0 0 1-64-64V64a64 64 0 0 1 64-64h896zM555.424 420.704h-86.848l-18.88 343.136h124.608l-18.88-343.136zM512 260.16a62.272 62.272 0 1 0 0 124.576 62.272 62.272 0 0 0 0-124.576z" fill="#0092EF" p-id="20625"></path></svg>