<?xml version="1.0" standalone="no"?><!DOCTYPE svg PUBLIC "-//W3C//DTD SVG 1.1//EN" "http://www.w3.org/Graphics/SVG/1.1/DTD/svg11.dtd"><svg t="1731397503820" class="icon" viewBox="0 0 1024 1024" version="1.1" xmlns="http://www.w3.org/2000/svg" p-id="7676" xmlns:xlink="http://www.w3.org/1999/xlink" width="48" height="48"><path d="M182.979048 270.287238a438.905905 438.905905 0 1 1 634.88 605.232762 26.404571 26.404571 0 1 1-36.790858-37.839238 385.974857 385.974857 0 0 0 116.784762-290.889143H869.424762a21.455238 21.455238 0 0 1 0-42.910476h24.454095A386.29181 386.29181 0 0 0 536.137143 175.34781v36.522666a21.455238 21.455238 0 1 1-42.910476 0V175.104l-5.168762 0.24381c-177.39581 11.044571-319.707429 140.873143-354.182095 307.102476h27.696761a21.455238 21.455238 0 1 1 0 42.910476H127.512381a386.438095 386.438095 0 0 0 115.785143 312.563809 26.404571 26.404571 0 1 1-36.742095 37.936762c-168.326095-163.157333-178.712381-429.81181-23.552-605.574095h-0.024381z" fill="#1890FF" p-id="7677"></path><path d="M508.952381 278.674286c4.022857 0 7.631238 2.389333 9.167238 6.095238l29.671619 72.313905c4.33981 10.532571 6.826667 21.77219 7.314286 33.158095l13.409524 299.056762a49.493333 49.493333 0 0 1-49.39581 51.687619h-20.187428a49.493333 49.493333 0 0 1-49.542096-51.687619l13.458286-299.081143c0.463238-11.361524 2.925714-22.552381 7.241143-33.133714L499.809524 284.769524a9.898667 9.898667 0 0 1 9.142857-6.095238z" fill="#01B0FB" p-id="7678"></path></svg>