<?xml version="1.0" standalone="no"?><!DOCTYPE svg PUBLIC "-//W3C//DTD SVG 1.1//EN" "http://www.w3.org/Graphics/SVG/1.1/DTD/svg11.dtd"><svg t="1721134272320" class="icon" viewBox="0 0 1024 1024" version="1.1" xmlns="http://www.w3.org/2000/svg" p-id="5767" xmlns:xlink="http://www.w3.org/1999/xlink" width="48" height="48"><path d="M512 80c238.592 0 432 193.408 432 432S750.592 944 512 944a430.144 430.144 0 0 1-198.08-48H176a48 48 0 0 1-48-48v-137.888C97.328 650.768 80 583.408 80 512 80 273.408 273.408 80 512 80z m0 576a48 48 0 1 0 0 96 48 48 0 0 0 0-96z m32-384h-64v320h64V272z" fill="#d81e06" p-id="5768"></path></svg>