<?xml version="1.0" standalone="no"?><!DOCTYPE svg PUBLIC "-//W3C//DTD SVG 1.1//EN" "http://www.w3.org/Graphics/SVG/1.1/DTD/svg11.dtd"><svg t="1720688092651" class="icon" viewBox="0 0 1024 1024" version="1.1" xmlns="http://www.w3.org/2000/svg" p-id="64993" xmlns:xlink="http://www.w3.org/1999/xlink" width="48" height="48"><path d="M707.047619 487.619048c134.656 0 243.809524 109.153524 243.809524 243.809523s-109.153524 243.809524-243.809524 243.809524-243.809524-109.153524-243.809524-243.809524 109.153524-243.809524 243.809524-243.809523z m195.047619-390.095238a48.761905 48.761905 0 0 1 48.761905 48.761904l0.024381 423.399619A292.303238 292.303238 0 0 0 707.047619 438.857143c-161.572571 0-292.571429 130.998857-292.571429 292.571428 0 74.947048 28.184381 143.311238 74.508191 195.047619H121.904762a48.761905 48.761905 0 0 1-48.761905-48.761904V146.285714a48.761905 48.761905 0 0 1 48.761905-48.761904h780.190476zM620.30019 645.290667c-3.267048 3.413333-6.704762 6.802286-10.020571 10.24-8.216381 34.157714-30.232381 43.861333-40.838095 46.567619a12.434286 12.434286 0 0 0-19.504762 4.193524l-9.898667 9.971809c-4.87619 4.949333-4.87619 12.921905 0 17.846857l48.054857 48.859429c4.778667 4.900571 12.678095 4.900571 17.554286 0l9.264762-9.508572a13.019429 13.019429 0 0 0 5.948952-18.18819c0-0.024381 0-0.097524 0.048762-0.146286 0.24381-0.804571 0.487619-1.657905 0.828953-2.56 0.414476-1.170286 0.902095-2.31619 1.389714-3.486476 0.292571-0.487619 0.536381-1.048381 0.804571-1.633524a34.133333 34.133333 0 0 1 2.584381-3.754667 19.065905 19.065905 0 0 1 7.314286-5.412571c19.504762-7.826286 38.716952 5.071238 48.103619 12.970667 0.463238 0.414476 33.718857 34.620952 99.766857 102.643809 12.824381 13.238857 33.889524 13.750857 47.372191 1.194667a32.426667 32.426667 0 0 0 1.072762-46.372572 116517.961143 116517.961143 0 0 0-119.320381-122.002285c-29.062095-29.42781-7.021714-67.193905 27.062857-80.457143 7.996952-3.072 16.11581-3.925333 24.478476-5.12 1.999238-0.24381 6.265905-0.292571 10.48381-0.316952 8.777143-0.121905 8.045714-12.190476-0.048762-13.458286-4.559238-0.658286-9.630476-1.414095-12.166096-1.609143-45.641143-4.169143-94.305524 12.55619-140.336762 59.538286zM463.238095 341.333333a48.761905 48.761905 0 1 0 0 97.52381 48.761905 48.761905 0 0 0 0-97.52381z m-121.904762 24.380953H195.047619a24.380952 24.380952 0 0 0 0 48.761904h146.285714a24.380952 24.380952 0 0 0 0-48.761904zM219.428571 195.047619a48.761905 48.761905 0 1 0 0 97.52381 48.761905 48.761905 0 0 0 0-97.52381z m268.190477 24.380952h-146.285715a24.380952 24.380952 0 0 0 0 48.761905h146.285715a24.380952 24.380952 0 0 0 0-48.761905z" fill="#1296db" p-id="64994"></path></svg>