<?xml version="1.0" standalone="no"?><!DOCTYPE svg PUBLIC "-//W3C//DTD SVG 1.1//EN" "http://www.w3.org/Graphics/SVG/1.1/DTD/svg11.dtd"><svg t="1724749823359" class="icon" viewBox="0 0 1024 1024" version="1.1" xmlns="http://www.w3.org/2000/svg" p-id="35771" xmlns:xlink="http://www.w3.org/1999/xlink" width="48" height="48"><path d="M864 253.376H155.52a18.144 18.144 0 0 1-13.824-29.824l85.472-101.376a18.336 18.336 0 0 1 13.856-6.4h516.032c4.608 0 9.12 1.792 12.48 4.96l107.104 101.344c11.84 11.264 3.84 31.296-12.608 31.296z m26.336 79.296H133.536a18.112 18.112 0 0 0-18.112 18.112v540.224c0 10.016 8.128 18.112 18.112 18.112h756.8a18.112 18.112 0 0 0 18.112-18.112V350.784a18.24 18.24 0 0 0-18.112-18.112z m-267.52 288.128H549.44v139.168a18.24 18.24 0 0 1-18.24 18.208h-42.976a18.24 18.24 0 0 1-18.24-18.24V620.8h-73.344a18.176 18.176 0 0 1-12.8-31.04l113.056-113.088a18.24 18.24 0 0 1 25.76 0l112.96 112.96a18.24 18.24 0 0 1-12.832 31.168z" fill="#3e6edf" p-id="35772"></path></svg>